<svg class="letter-6" width="88" height="89" viewBox="0 0 88 89" xmlns="http://www.w3.org/2000/svg">
<path d="M81.5448 16.1154L70.4198 27.2404C63.2884 19.8237 55.016 16.1154 45.6025 16.1154C37.3301 16.1154 30.4839 18.968 25.0641 24.3878C19.6442 29.8077 16.7916 36.3686 16.7916 44.3558C16.7916 52.343 19.6442 59.1891 25.3493 64.8942C31.0545 70.5994 38.1859 73.1667 46.7436 73.1667C52.1634 73.1667 56.7275 72.0256 60.7211 69.7436C64.7147 67.4615 67.5672 63.7532 69.8493 58.9039H45.6025V44.0705H87.25V47.4936C87.25 54.9103 85.2532 61.7564 81.5448 68.3173C77.8365 74.8782 72.9871 79.7276 66.9967 83.1506C61.0063 86.5737 53.875 88.2853 45.8878 88.2853C37.3301 88.2853 29.6281 86.2885 22.782 82.5801C15.9358 78.8718 10.516 73.4519 6.80766 66.6058C2.81407 59.7596 0.817261 52.0577 0.817261 44.0705C0.817261 32.9455 4.5256 23.5321 11.657 15.2596C20.2147 5.56091 31.625 0.711548 45.3173 0.711548C52.4487 0.711548 59.2948 2.13783 65.5705 4.70514C71.2756 6.70193 76.4102 10.4103 81.5448 16.1154Z"/>
</svg>
