<svg class="letter-5" width="67" height="84" viewBox="0 0 67 84" xmlns="http://www.w3.org/2000/svg">
<path d="M0.365356 0.423096H19.1923C31.173 0.423096 40.3012 1.84938 46.2916 4.9872C52.282 8.12502 57.1314 12.9744 60.8397 19.5353C64.548 26.3814 66.5448 34.0834 66.5448 43.2116C66.5448 49.7725 65.4038 55.4776 63.407 60.8975C61.4102 66.3173 58.2724 70.8814 54.5641 74.3045C50.8557 77.7276 46.8621 80.2949 42.298 81.7212C38.0192 83.1475 30.3173 83.718 19.4775 83.718H0.365356V0.423096ZM16.0545 15.8269V68.3141H23.4711C30.6025 68.3141 36.0224 67.4584 39.1602 65.7468C42.298 64.0353 45.1506 61.1827 47.1474 57.4744C49.1442 53.4808 50.2852 48.6314 50.2852 42.9263C50.2852 34.0834 47.7179 27.2372 42.8685 22.3878C38.3044 18.109 31.173 15.8269 21.4743 15.8269H16.0545Z"/>
</svg>
