<svg class="letter-1" width="87" height="88" viewBox="0 0 87 88" xmlns="http://www.w3.org/2000/svg">
<path d="M43.6442 0.42627C55.3397 0.42627 65.609 4.70512 74.1667 13.2628C82.7244 21.8205 87.0032 32.0897 87.0032 44.641C87.0032 56.907 82.7244 67.1763 74.4519 75.4487C66.1795 84.0064 55.9102 88 43.9295 88C31.3782 88 21.109 83.7211 12.8365 74.8782C4.27885 66.3205 0 56.0513 0 44.0705C0 36.0833 1.99679 28.6667 5.70513 22.1058C9.69872 15.5449 14.8333 10.125 21.6795 6.1314C28.5256 2.42306 35.657 0.42627 43.6442 0.42627ZM43.359 15.8301C35.657 15.8301 29.0962 18.3974 23.9615 23.8173C18.8269 29.2372 15.9744 36.0833 15.9744 44.3558C15.9744 53.484 19.3974 60.9006 25.9583 66.3205C31.0929 70.5993 37.0833 72.5961 43.6442 72.5961C51.0609 72.5961 57.6218 69.7436 62.7564 64.3237C68.1763 58.9038 70.7436 52.0577 70.7436 44.0705C70.7436 36.0833 68.1763 29.5224 62.7564 23.8173C57.3365 18.6827 51.0609 15.8301 43.359 15.8301Z"/>
</svg>
