<svg class="letter-3" width="175" height="88" viewBox="0 0 175 88" xmlns="http://www.w3.org/2000/svg">
<path d="M174.074 42.6474C174.074 42.6474 173.788 40.3653 171.792 40.3653C169.51 40.3653 140.128 40.3653 132.712 40.3653C131 40.3653 131 42.0769 131 42.0769C131 42.0769 131 53.4871 131 54.9134C131 56.3397 132.426 56.3397 132.426 56.3397H155.247C150.683 65.1826 141.554 71.4583 131 71.4583C122.442 71.4583 114.74 67.4647 109.606 61.189C109.606 61.189 108.465 59.4775 108.179 59.1922L80.2244 20.6826C79.6538 19.5416 78.7981 18.6858 78.2275 17.8301V17.5448C69.3846 6.41981 55.1218 -0.426341 39.7179 0.999941C19.75 2.99674 3.49037 18.9711 1.20832 39.2243C-1.64424 65.4679 18.8942 87.7179 44.282 87.7179C59.9711 87.7179 73.3782 79.7307 81.0801 67.1794C81.6506 66.6089 81.0801 65.7531 81.0801 65.7531L71.0961 51.7756C71.0961 51.7756 70.5256 51.2051 70.2404 51.7756C70.2404 52.0608 70.2404 51.7756 70.2404 52.0608C66.532 64.3269 54.5513 72.8846 40.859 71.173C28.5929 69.7467 18.609 59.7628 17.1827 47.2115C14.9006 31.2371 27.7372 17.2596 43.7115 17.2596C52.5545 17.2596 60.2564 21.2531 65.1058 27.814L66.532 29.8108C66.8173 30.0961 67.1026 30.6666 67.3878 30.9519L96.484 71.173C104.471 81.4423 116.737 88.0031 130.715 88.0031C154.676 88.0031 174.074 68.6057 174.074 44.6442C174.074 43.7884 174.074 43.2179 174.074 42.6474Z"/>
<path d="M130.715 17.2596C141.554 17.2596 150.683 23.25 154.962 32.0929C155.532 32.9487 156.388 32.9487 156.388 32.9487H171.221C171.221 32.9487 172.362 32.6635 172.077 31.5224C166.942 13.5513 150.397 1 130.715 1C115.026 1 101.619 8.70192 94.2019 20.9679C93.3461 22.109 94.2019 23.25 94.2019 23.25L103.33 36.0865C103.33 36.0865 104.471 36.9423 105.042 35.8013C108.179 24.391 118.449 17.2596 130.715 17.2596Z"/>
</svg>
